<svg xmlns="http://www.w3.org/2000/svg" width="69" height="81" viewBox="0 0 69 81"><path d="M32.616 78.878l-28.362-16.92c-1.518-.907-2.465-2.604-2.467-4.426l-.061-33.95c-.003-1.824.938-3.524 2.453-4.434l28.3-17.031c1.48-.891 3.405-.895 4.892-.009l28.363 16.921c1.516.905 2.463 2.601 2.466 4.424l.062 33.95c.003 1.823-.939 3.523-2.453 4.434l-28.301 17.031c-.745.449-1.593.685-2.454.685-.854 0-1.698-.233-2.439-.675zm5.39.816l28.3-17.03c1.806-1.087 2.923-3.102 2.92-5.262l-.062-33.95c-.003-2.159-1.126-4.171-2.936-5.251l-28.364-16.921c-1.793-1.068-4.099-1.063-5.883.011l-28.3 17.03c-1.807 1.086-2.924 3.101-2.92 5.262l.061 33.95c.002 2.158 1.125 4.17 2.937 5.252l28.362 16.92c.89.531 1.904.811 2.933.811 1.037 0 2.058-.285 2.952-.824z" fill="<?php echo esc_attr( $fill ) ?>"/></svg>